# xmcd
#
# Track frame offsets:
# 150
# 14145
# 24775
# 44722
# 59532
# 76760
# 89425
# 101480
# 113915
# 127150
# 137785
#
# Disc length: 2021 seconds
#
#
# Revision: 0
# Processed by: cddbd v1.5.1PL0 Copyright (c) Steve Scherf et al.
# Submitted via: FreeRIP 2.60 
#
DISCID=9607e30b
DTITLE=Nicole Dumont - La musique du bonheur
DYEAR=1997
DGENRE=Country
TTITLE0=La Music du Bonheur
TTITLE1=Camionneur
TTITLE2=Mon Etoile, Ma Reine
TTITLE3=Pourquoi Partir?
TTITLE4=Tu est la
TTITLE5=La danse d'Helene
TTITLE6=C'est comme ca en Acadie
TTITLE7=Une Histoire pour vous
TTITLE8=Coeur blesse
TTITLE9=L'homme ideal
TTITLE10=A vol d'oiseau
EXTD=
EXTT0=
EXTT1=
EXTT2=
EXTT3=
EXTT4=
EXTT5=
EXTT6=
EXTT7=
EXTT8=
EXTT9=
EXTT10=
PLAYORDER=
